<svg width="24" height="25" viewBox="0 0 24 25" fill="none" xmlns="http://www.w3.org/2000/svg">
<path d="M20.023 16.113C19.393 16.098 18.6 16.061 18.099 15.973C17.557 15.877 16.905 15.691 16.446 15.548C16.086 15.436 15.694 15.535 15.427 15.801L13.21 18.005C11.678 17.198 10.451 16.258 9.412 15.213C8.367 14.174 7.427 12.947 6.62 11.415L8.824 9.197C9.09 8.93 9.189 8.538 9.077 8.178C8.935 7.72 8.748 7.068 8.653 6.526C8.564 6.025 8.528 5.232 8.512 4.602C8.499 4.057 8.055 3.625 7.51 3.625H4C3.562 3.625 3 3.953 3 4.625C3 9.164 4.84 13.499 7.966 16.659C11.126 19.785 15.461 21.625 20 21.625C20.672 21.625 21 21.063 21 20.625V17.115C21 16.57 20.568 16.126 20.023 16.113Z" fill="#112D32"/>
</svg>
